<svg width="50" height="50" viewBox="0 0 50 50" fill="none" xmlns="http://www.w3.org/2000/svg">
<path d="M32.15 23.75C32.15 25.275 31.025 26.525 29.6 26.525C28.2 26.525 27.05 25.275 27.05 23.75C27.05 22.225 28.175 20.975 29.6 20.975C31.025 20.975 32.15 22.225 32.15 23.75ZM20.475 20.975C19.05 20.975 17.925 22.225 17.925 23.75C17.925 25.275 19.075 26.525 20.475 26.525C21.9 26.525 23.025 25.275 23.025 23.75C23.05 22.225 21.9 20.975 20.475 20.975ZM46.875 5.15V50C40.5768 44.4342 42.591 46.2766 35.275 39.475L36.6 44.1H8.25C5.425 44.1 3.125 41.8 3.125 38.95V5.15C3.125 2.3 5.425 0 8.25 0H41.75C44.575 0 46.875 2.3 46.875 5.15ZM39.75 28.85C39.75 20.8 36.15 14.275 36.15 14.275C32.55 11.575 29.125 11.65 29.125 11.65L28.775 12.05C33.025 13.35 35 15.225 35 15.225C29.0614 11.9702 22.0855 11.9696 16.325 14.5C15.4 14.925 14.85 15.225 14.85 15.225C14.85 15.225 16.925 13.25 21.425 11.95L21.175 11.65C21.175 11.65 17.75 11.575 14.15 14.275C14.15 14.275 10.55 20.8 10.55 28.85C10.55 28.85 12.65 32.475 18.175 32.65C18.175 32.65 19.1 31.525 19.85 30.575C16.675 29.625 15.475 27.625 15.475 27.625C15.8428 27.8824 16.4492 28.2161 16.5 28.25C20.7197 30.6131 26.7137 31.3873 32.1 29.125C32.975 28.8 33.95 28.325 34.975 27.65C34.975 27.65 33.725 29.7 30.45 30.625C31.2 31.575 32.1 32.65 32.1 32.65C37.625 32.475 39.75 28.85 39.75 28.85V28.85Z" fill="#FF8207"/>
</svg>
