<svg width="45" height="64" viewBox="0 0 45 64" fill="none" xmlns="http://www.w3.org/2000/svg">
<path d="M33.291 21.6709C36.1648 21.6709 38.9208 20.5293 40.9528 18.4973C42.9849 16.4652 44.1265 13.7092 44.1265 10.8354C44.1265 7.96171 42.9849 5.20567 40.9528 3.17363C38.9208 1.14159 36.1648 0 33.291 0L11.6201 0C8.74806 0 5.99364 1.14092 3.96279 3.17177C1.93194 5.20262 0.791019 7.95705 0.791019 10.8291C0.791019 13.7012 1.93194 16.4556 3.96279 18.4864C5.99364 20.5173 8.74806 21.6582 11.6201 21.6582C8.74638 21.6582 5.99034 22.7998 3.9583 24.8318C1.92626 26.8639 0.784671 29.6199 0.784671 32.4937C0.784671 35.3674 1.92626 38.1234 3.9583 40.1555C5.99034 42.1875 8.74638 43.3291 11.6201 43.3291C9.47707 43.3278 7.38178 43.9621 5.5992 45.1517C3.81662 46.3412 2.42682 48.0327 1.60556 50.0121C0.784286 51.9916 0.568432 54.1701 0.985289 56.2722C1.40215 58.3743 2.43299 60.3056 3.94747 61.8219C5.46194 63.3381 7.39203 64.3712 9.49366 64.7906C11.5953 65.2099 13.7741 64.9966 15.7545 64.1776C17.7349 63.3587 19.4279 61.9709 20.6196 60.1897C21.8113 58.4085 22.448 56.3139 22.4492 54.1709V21.6709H33.291ZM33.291 21.6709C31.1492 21.6709 29.0555 22.306 27.2747 23.4959C25.4939 24.6858 24.1059 26.3771 23.2862 28.3559C22.4666 30.3346 22.2522 32.512 22.67 34.6127C23.0878 36.7133 24.1192 38.6429 25.6337 40.1573C27.1482 41.6718 29.0777 42.7032 31.1784 43.121C33.279 43.5389 35.4564 43.3244 37.4351 42.5048C39.4139 41.6852 41.1052 40.2972 42.2951 38.5163C43.485 36.7355 44.1201 34.6418 44.1201 32.5C44.1198 29.628 42.9788 26.8738 40.948 24.843C38.9172 22.8123 36.163 21.6712 33.291 21.6709Z" fill="#101010"/>
</svg>
