<svg width="65" height="65" viewBox="0 0 65 65" fill="none" xmlns="http://www.w3.org/2000/svg">
<rect width="65" height="65" fill="#FF8207"/>
<path d="M22.0771 49.4355C22.0771 49.6895 21.7852 49.8926 21.417 49.8926C20.998 49.9307 20.7061 49.7275 20.7061 49.4355C20.7061 49.1816 20.998 48.9785 21.3662 48.9785C21.7471 48.9404 22.0771 49.1436 22.0771 49.4355ZM18.1289 48.8643C18.04 49.1182 18.2939 49.4102 18.6748 49.4863C19.0049 49.6133 19.3857 49.4863 19.4619 49.2324C19.5381 48.9785 19.2969 48.6865 18.916 48.5723C18.5859 48.4834 18.2178 48.6104 18.1289 48.8643ZM23.7402 48.6484C23.3721 48.7373 23.1182 48.9785 23.1562 49.2705C23.1943 49.5244 23.5244 49.6895 23.9053 49.6006C24.2734 49.5117 24.5273 49.2705 24.4893 49.0166C24.4512 48.7754 24.1084 48.6104 23.7402 48.6484ZM32.0938 0C14.4854 0 1.01562 13.3682 1.01562 30.9766C1.01562 45.0557 9.87695 57.1035 22.5342 61.3438C24.1592 61.6357 24.7305 60.6328 24.7305 59.8076C24.7305 59.0205 24.6924 54.6787 24.6924 52.0127C24.6924 52.0127 15.8057 53.917 13.9395 48.2295C13.9395 48.2295 12.4922 44.5352 10.4102 43.583C10.4102 43.583 7.50293 41.5898 10.6133 41.6279C10.6133 41.6279 13.7744 41.8818 15.5137 44.9033C18.2939 49.8037 22.9531 48.3945 24.7686 47.5566C25.0605 45.5254 25.8857 44.1162 26.7998 43.2783C19.7031 42.4912 12.543 41.4629 12.543 29.25C12.543 25.7588 13.5078 24.0068 15.5391 21.7725C15.209 20.9473 14.1299 17.5449 15.8691 13.1523C18.5225 12.3271 24.6289 16.5801 24.6289 16.5801C27.168 15.8691 29.8975 15.501 32.6016 15.501C35.3057 15.501 38.0352 15.8691 40.5742 16.5801C40.5742 16.5801 46.6807 12.3145 49.334 13.1523C51.0732 17.5576 49.9941 20.9473 49.6641 21.7725C51.6953 24.0195 52.9395 25.7715 52.9395 29.25C52.9395 41.501 45.4619 42.4785 38.3652 43.2783C39.5332 44.2812 40.5234 46.1855 40.5234 49.1689C40.5234 53.4473 40.4854 58.7412 40.4854 59.7822C40.4854 60.6074 41.0693 61.6104 42.6816 61.3184C55.377 57.1035 63.9844 45.0557 63.9844 30.9766C63.9844 13.3682 49.7021 0 32.0938 0ZM13.3555 43.7861C13.1904 43.9131 13.2285 44.2051 13.4443 44.4463C13.6475 44.6494 13.9395 44.7383 14.1045 44.5732C14.2695 44.4463 14.2314 44.1543 14.0156 43.9131C13.8125 43.71 13.5205 43.6211 13.3555 43.7861ZM11.9844 42.7578C11.8955 42.9229 12.0225 43.126 12.2764 43.2529C12.4795 43.3799 12.7334 43.3418 12.8223 43.1641C12.9111 42.999 12.7842 42.7959 12.5303 42.6689C12.2764 42.5928 12.0732 42.6309 11.9844 42.7578ZM16.0977 47.2773C15.8945 47.4424 15.9707 47.8232 16.2627 48.0645C16.5547 48.3564 16.9229 48.3945 17.0879 48.1914C17.2529 48.0264 17.1768 47.6455 16.9229 47.4043C16.6436 47.1123 16.2627 47.0742 16.0977 47.2773ZM14.6504 45.4111C14.4473 45.5381 14.4473 45.8682 14.6504 46.1602C14.8535 46.4521 15.1963 46.5791 15.3613 46.4521C15.5645 46.2871 15.5645 45.957 15.3613 45.665C15.1836 45.373 14.8535 45.2461 14.6504 45.4111Z" fill="#101010"/>
</svg>
