<svg width="50" height="50" viewBox="0 0 50 50" fill="none" xmlns="http://www.w3.org/2000/svg">
<path d="M25.0704 13.84C18.8595 13.84 13.8497 18.8497 13.8497 25.0607C13.8497 31.2716 18.8595 36.2814 25.0704 36.2814C31.2814 36.2814 36.2911 31.2716 36.2911 25.0607C36.2911 18.8497 31.2814 13.84 25.0704 13.84ZM25.0704 32.3556C21.0568 32.3556 17.7755 29.0841 17.7755 25.0607C17.7755 21.0372 21.047 17.7657 25.0704 17.7657C29.0939 17.7657 32.3654 21.0372 32.3654 25.0607C32.3654 29.0841 29.0841 32.3556 25.0704 32.3556V32.3556ZM39.3673 13.381C39.3673 14.8361 38.1954 15.9982 36.7501 15.9982C35.295 15.9982 34.1329 14.8263 34.1329 13.381C34.1329 11.9357 35.3048 10.7638 36.7501 10.7638C38.1954 10.7638 39.3673 11.9357 39.3673 13.381ZM46.799 16.0372C46.6329 12.5314 45.8322 9.4259 43.2638 6.86731C40.7052 4.30872 37.5997 3.50793 34.0939 3.33215C30.4806 3.12708 19.6505 3.12708 16.0372 3.33215C12.5411 3.49817 9.43567 4.29895 6.86731 6.85754C4.29895 9.41614 3.50793 12.5216 3.33215 16.0275C3.12708 19.6407 3.12708 30.4708 3.33215 34.0841C3.49817 37.59 4.29895 40.6954 6.86731 43.254C9.43567 45.8126 12.5314 46.6134 16.0372 46.7892C19.6505 46.9943 30.4806 46.9943 34.0939 46.7892C37.5997 46.6232 40.7052 45.8224 43.2638 43.254C45.8224 40.6954 46.6232 37.59 46.799 34.0841C47.004 30.4708 47.004 19.6505 46.799 16.0372V16.0372ZM42.131 37.9611C41.3693 39.8751 39.8947 41.3497 37.9708 42.1212C35.09 43.2638 28.254 43.0001 25.0704 43.0001C21.8868 43.0001 15.0411 43.254 12.17 42.1212C10.256 41.3595 8.78137 39.8849 8.00989 37.9611C6.86731 35.0802 7.13098 28.2443 7.13098 25.0607C7.13098 21.8771 6.87708 15.0314 8.00989 12.1603C8.77161 10.2462 10.2462 8.77161 12.17 8.00012C15.0509 6.85754 21.8868 7.12122 25.0704 7.12122C28.254 7.12122 35.0997 6.86731 37.9708 8.00012C39.8849 8.76184 41.3595 10.2365 42.131 12.1603C43.2736 15.0411 43.0099 21.8771 43.0099 25.0607C43.0099 28.2443 43.2736 35.09 42.131 37.9611Z" fill="#FF8207"/>
</svg>
