<svg width="57" height="57" viewBox="0 0 57 57" fill="none" xmlns="http://www.w3.org/2000/svg">
<path d="M0.0625 0V56.875H56.9375V0H0.0625ZM31.0137 44.3574C31.0137 49.8926 27.7637 52.4189 23.0283 52.4189C18.75 52.4189 16.2744 50.21 15.0049 47.5312L19.3594 44.9033C20.1973 46.3887 20.959 47.6455 22.7998 47.6455C24.5518 47.6455 25.6689 46.96 25.6689 44.2812V26.1143H31.0137V44.3574ZM43.6582 52.4189C38.6943 52.4189 35.4824 50.0576 33.9209 46.96L38.2754 44.4463C39.418 46.3125 40.916 47.6963 43.5439 47.6963C45.7529 47.6963 47.1748 46.5918 47.1748 45.0557C47.1748 43.2275 45.7275 42.5801 43.2773 41.501L41.9443 40.9297C38.085 39.292 35.5332 37.2227 35.5332 32.8682C35.5332 28.8564 38.5928 25.8096 43.3535 25.8096C46.7559 25.8096 49.1934 26.9902 50.9453 30.0879L46.7812 32.7539C45.8672 31.1162 44.877 30.4688 43.3408 30.4688C41.7793 30.4688 40.7891 31.459 40.7891 32.7539C40.7891 34.3535 41.7793 35.001 44.0771 36.0039L45.4102 36.5752C49.9551 38.5176 52.5068 40.5107 52.5068 44.9795C52.5068 49.7783 48.7236 52.4189 43.6582 52.4189Z" fill="#101010"/>
</svg>
