<svg width="99" height="85" viewBox="0 0 99 85" fill="none" xmlns="http://www.w3.org/2000/svg">
<path d="M2.688 23.688C3.584 23.7307 4.75733 23.7733 6.208 23.816C7.65867 23.8587 9.088 23.88 10.496 23.88C12.5013 23.88 14.4213 23.8587 16.256 23.816C18.0907 23.7733 19.392 23.752 20.16 23.752C24.64 23.752 28.0107 24.6907 30.272 26.568C32.5333 28.4453 33.664 30.856 33.664 33.8C33.664 35.2933 33.344 36.7653 32.704 38.216C32.1067 39.624 31.0827 40.9253 29.632 42.12C28.224 43.272 26.3253 44.2107 23.936 44.936V45.064C27.3067 45.4907 29.9307 46.3013 31.808 47.496C33.728 48.648 35.072 50.0133 35.84 51.592C36.608 53.1707 36.992 54.8347 36.992 56.584C36.992 59.016 36.3733 61.1707 35.136 63.048C33.9413 64.8827 32.192 66.3333 29.888 67.4C27.584 68.4667 24.832 69 21.632 69C20.6933 69 19.2853 68.9787 17.408 68.936C15.5307 68.8507 13.2693 68.808 10.624 68.808C9.13067 68.808 7.65867 68.8293 6.208 68.872C4.75733 68.872 3.584 68.9147 2.688 69V67.72C4.13867 67.6347 5.22667 67.464 5.952 67.208C6.72 66.952 7.232 66.44 7.488 65.672C7.744 64.904 7.872 63.752 7.872 62.216V30.472C7.872 28.8933 7.744 27.7413 7.488 27.016C7.232 26.248 6.72 25.736 5.952 25.48C5.22667 25.1813 4.13867 25.0107 2.688 24.968V23.688ZM18.56 24.968C16.5973 24.968 15.3173 25.3307 14.72 26.056C14.1227 26.7813 13.824 28.2533 13.824 30.472V62.216C13.824 63.7093 13.952 64.84 14.208 65.608C14.464 66.376 14.9333 66.888 15.616 67.144C16.2987 67.4 17.3013 67.528 18.624 67.528C22.8053 67.528 25.8347 66.568 27.712 64.648C29.632 62.6853 30.592 59.912 30.592 56.328C30.592 53.0427 29.696 50.504 27.904 48.712C26.1547 46.92 23.2533 46.024 19.2 46.024H12.608C12.608 46.024 12.608 45.8533 12.608 45.512C12.608 45.128 12.608 44.936 12.608 44.936H18.112C20.6293 44.936 22.5707 44.4667 23.936 43.528C25.3013 42.5467 26.24 41.2667 26.752 39.688C27.264 38.0667 27.52 36.3387 27.52 34.504C27.52 31.3467 26.816 28.9787 25.408 27.4C24.0427 25.7787 21.76 24.968 18.56 24.968ZM56.259 22.984C58.3923 22.984 60.0137 23.24 61.123 23.752C62.2323 24.2213 63.2137 24.7547 64.067 25.352C64.579 25.6507 64.9843 25.8853 65.283 26.056C65.6243 26.184 65.9443 26.248 66.243 26.248C66.6697 26.248 66.9683 26.0133 67.139 25.544C67.3523 25.0747 67.523 24.3707 67.651 23.432H69.123C69.0803 24.1573 69.0163 25.032 68.931 26.056C68.8883 27.0373 68.8457 28.36 68.803 30.024C68.803 31.6453 68.803 33.8 68.803 36.488H67.331C67.203 34.44 66.755 32.4773 65.987 30.6C65.219 28.7227 64.0883 27.1867 62.595 25.992C61.1443 24.7973 59.2243 24.2 56.835 24.2C54.5737 24.2 52.6963 24.8827 51.203 26.248C49.7523 27.6133 49.027 29.4053 49.027 31.624C49.027 33.544 49.5177 35.1653 50.499 36.488C51.4803 37.768 52.7817 38.9413 54.403 40.008C56.067 41.032 57.859 42.1413 59.779 43.336C61.9977 44.7013 63.9603 46.0667 65.667 47.432C67.4163 48.7547 68.7817 50.2267 69.763 51.848C70.787 53.4693 71.299 55.432 71.299 57.736C71.299 60.4667 70.6803 62.728 69.443 64.52C68.2057 66.312 66.563 67.656 64.515 68.552C62.467 69.448 60.2057 69.896 57.731 69.896C55.4697 69.896 53.6777 69.64 52.355 69.128C51.0323 68.616 49.9017 68.0827 48.963 67.528C48.0243 66.9307 47.299 66.632 46.787 66.632C46.3603 66.632 46.0403 66.8667 45.827 67.336C45.6563 67.8053 45.507 68.5093 45.379 69.448H43.907C43.9923 68.552 44.035 67.5067 44.035 66.312C44.0777 65.0747 44.099 63.4747 44.099 61.512C44.1417 59.5493 44.163 57.0747 44.163 54.088H45.635C45.8057 56.648 46.275 59.0373 47.043 61.256C47.8537 63.4747 49.0697 65.2667 50.691 66.632C52.355 67.9547 54.5523 68.616 57.283 68.616C58.691 68.616 60.0137 68.3387 61.251 67.784C62.531 67.1867 63.5763 66.2693 64.387 65.032C65.1977 63.752 65.603 62.1093 65.603 60.104C65.603 58.3547 65.1763 56.84 64.323 55.56C63.5123 54.2373 62.3603 53.0213 60.867 51.912C59.3737 50.76 57.6243 49.5867 55.619 48.392C53.6137 47.1547 51.7363 45.896 49.987 44.616C48.2377 43.336 46.8297 41.864 45.763 40.2C44.739 38.4933 44.227 36.4453 44.227 34.056C44.227 31.5387 44.7817 29.4693 45.891 27.848C47.043 26.184 48.5363 24.968 50.371 24.2C52.2057 23.3893 54.1683 22.984 56.259 22.984ZM96.1335 22.792L78.7255 69.896H76.6135L94.0215 22.792H96.1335Z" fill="#FF8207"/>
</svg>
