<svg width="65" height="57" viewBox="0 0 65 57" fill="none" xmlns="http://www.w3.org/2000/svg">
<path d="M53.0918 18.432C52.4062 18.2035 51.7207 17.9877 51.0352 17.7845C51.1494 17.3148 51.251 16.8451 51.3525 16.3754C52.9141 8.80896 51.8857 2.7279 48.4199 0.722045C45.0811 -1.19495 39.6348 0.798217 34.125 5.59704C33.5791 6.06677 33.0459 6.56189 32.5381 7.05701C32.1953 6.72693 31.8398 6.39685 31.4844 6.07947C25.708 0.950561 19.9189 -1.20764 16.4531 0.810913C13.127 2.7406 12.1367 8.46619 13.5332 15.6263C13.6729 16.3373 13.8252 17.0355 14.0029 17.7465C13.1904 17.975 12.3906 18.2289 11.6416 18.4955C4.8623 20.8441 0 24.5511 0 28.3851C0 32.3461 5.17969 36.3197 12.2256 38.7318C12.7969 38.9222 13.3682 39.1127 13.9521 39.2777C13.7617 40.0394 13.5967 40.7884 13.4443 41.5629C12.1113 48.6088 13.1523 54.1947 16.4785 56.1117C19.9062 58.0922 25.6699 56.0609 31.2812 51.1478C31.7256 50.7543 32.1699 50.348 32.6143 49.9164C33.1729 50.4623 33.7568 50.9828 34.3408 51.4906C39.7744 56.1625 45.1445 58.0541 48.458 56.1371C51.8857 54.1566 53.0029 48.1517 51.5557 40.8392C51.4414 40.2806 51.3145 39.7094 51.1748 39.1254C51.5811 39.0111 51.9746 38.8842 52.3682 38.7572C59.6934 36.3324 65 32.4095 65 28.3851C65 24.5385 59.998 20.806 53.0918 18.432ZM35.915 7.65369C40.6377 3.5404 45.043 1.9281 47.0488 3.08337C49.1943 4.31482 50.0195 9.29138 48.6738 15.8295C48.585 16.2611 48.4961 16.6801 48.3818 17.099C45.5635 16.4642 42.707 16.0072 39.8379 15.7533C38.1875 13.392 36.3848 11.1322 34.4297 9.01208C34.9248 8.54236 35.4072 8.09802 35.915 7.65369ZM21.2266 34.974C21.874 36.0785 22.5342 37.183 23.2324 38.2621C21.252 38.0463 19.2842 37.7289 17.3418 37.3099C17.9004 35.4818 18.5986 33.5902 19.4111 31.6605C19.9951 32.7777 20.5918 33.8822 21.2266 34.974ZM17.3799 19.7015C19.208 19.2953 21.1504 18.9652 23.1689 18.7113C22.4961 19.765 21.8359 20.8441 21.2139 21.9359C20.5918 23.015 19.9824 24.1195 19.4111 25.2367C18.6113 23.3451 17.9385 21.4916 17.3799 19.7015ZM20.8584 28.4486C21.6963 26.6967 22.6104 24.9828 23.5752 23.2943C24.54 21.6058 25.5811 19.9681 26.6729 18.3558C28.5771 18.2162 30.5195 18.14 32.5 18.14C34.4805 18.14 36.4355 18.2162 38.3271 18.3558C39.4062 19.9554 40.4346 21.5931 41.4121 23.2689C42.3896 24.9447 43.3037 26.6586 44.167 28.3978C43.3164 30.1498 42.4023 31.8763 41.4248 33.5775C40.46 35.266 39.4316 36.9037 38.3525 38.5287C36.4609 38.6683 34.4932 38.7318 32.5 38.7318C30.5068 38.7318 28.5771 38.6683 26.7109 38.5541C25.6064 36.9418 24.5654 35.2914 23.5879 33.6029C22.6104 31.9144 21.709 30.2006 20.8584 28.4486ZM43.7861 34.9486C44.4336 33.8314 45.043 32.7015 45.6396 31.559C46.4521 33.3998 47.1631 35.266 47.7852 37.183C45.8174 37.6273 43.8242 37.9701 41.8184 38.1986C42.5039 37.1322 43.1514 36.0404 43.7861 34.9486ZM45.6143 25.2367C45.0176 24.1195 44.4082 23.0023 43.7734 21.9105C43.1514 20.8314 42.5039 19.765 41.8311 18.7113C43.875 18.9652 45.8301 19.308 47.6582 19.7269C47.0742 21.6058 46.3887 23.434 45.6143 25.2367ZM32.5254 10.9545C33.8584 12.4017 35.1152 13.9252 36.2832 15.4994C33.7695 15.3851 31.2432 15.3851 28.7295 15.4994C29.9736 13.8617 31.2559 12.3383 32.5254 10.9545ZM17.7988 3.17224C19.9316 1.9281 24.667 3.70544 29.6562 8.12341C29.9736 8.40271 30.291 8.7074 30.6211 9.01208C28.6533 11.1322 26.8379 13.392 25.1748 15.7533C22.3057 16.0072 19.4619 16.4515 16.6436 17.0736C16.4785 16.4261 16.3389 15.766 16.1992 15.1058C15.0059 8.9613 15.793 4.32751 17.7988 3.17224ZM14.6885 36.6371C14.1553 36.4847 13.6348 36.3197 13.1143 36.142C10.4102 35.2914 7.33789 33.9457 5.11621 32.181C3.83398 31.2924 2.9707 29.9213 2.72949 28.3851C2.72949 26.0619 6.74121 23.0912 12.5303 21.0726C13.2539 20.8187 13.9902 20.5902 14.7266 20.3744C15.5898 23.1293 16.6309 25.8334 17.8369 28.4486C16.6182 31.1019 15.5645 33.8441 14.6885 36.6371ZM29.4912 49.0785C27.3965 50.9955 24.9717 52.5189 22.3311 53.5599C20.9219 54.2328 19.2969 54.2963 17.8496 53.725C15.8311 52.557 14.9932 48.0756 16.1357 42.0453C16.2754 41.3344 16.4277 40.6234 16.6055 39.9252C19.4492 40.5345 22.3184 40.9535 25.2256 41.1693C26.9014 43.5433 28.7422 45.8158 30.71 47.9486C30.3037 48.3422 29.8975 48.723 29.4912 49.0785ZM32.6016 45.9935C31.3066 44.597 30.0117 43.0482 28.7549 41.3851C29.9736 41.4359 31.2305 41.4613 32.5 41.4613C33.8076 41.4613 35.0898 41.4359 36.3594 41.3724C35.1914 42.9847 33.9346 44.5209 32.6016 45.9935ZM49.1943 49.8021C49.0801 51.3509 48.3184 52.7982 47.0996 53.7758C45.0811 54.9437 40.7773 53.4203 36.1309 49.434C35.5977 48.9769 35.0645 48.4818 34.5186 47.974C36.4609 45.8285 38.251 43.556 39.876 41.1693C42.7832 40.9281 45.6777 40.4838 48.5342 39.8363C48.6611 40.3568 48.7754 40.8773 48.877 41.3851C49.499 44.1273 49.6006 46.9838 49.1943 49.8021ZM51.5049 36.1547C51.1494 36.2689 50.7939 36.3832 50.4258 36.4847C49.5371 33.7172 48.4453 31.0131 47.1885 28.3851C48.4072 25.7953 49.4355 23.1293 50.2988 20.3998C50.959 20.5902 51.5938 20.7933 52.2031 20.9965C58.1191 23.0277 62.2705 26.0492 62.2705 28.3597C62.2705 30.848 57.8398 34.0599 51.5049 36.1547ZM32.5 34.2504C35.7119 34.2504 38.3145 31.6478 38.3145 28.4359C38.3145 25.224 35.7119 22.6215 32.5 22.6215C29.2881 22.6215 26.6855 25.224 26.6855 28.4359C26.6855 31.6478 29.2881 34.2504 32.5 34.2504Z" fill="#101010"/>
</svg>
