<svg width="57" height="57" viewBox="0 0 57 57" fill="none" xmlns="http://www.w3.org/2000/svg">
<path d="M55.8023 25.9044L30.9767 1.07233C30.2894 0.385695 29.3577 0 28.3862 0C27.4147 0 26.483 0.385695 25.7957 1.07233L20.6338 6.23044L27.1744 12.7711C30.6098 11.6107 33.8623 14.9001 32.6829 18.3164L38.9874 24.6209C43.333 23.1228 46.7544 28.5564 43.4904 31.8178C40.1274 35.1808 34.5771 31.4535 36.3811 27.0774L30.4968 21.2007V36.67C33.7087 38.262 33.3228 41.983 31.6495 43.6524C30.832 44.4694 29.7235 44.9284 28.5677 44.9284C27.4119 44.9284 26.3034 44.4694 25.4859 43.6524C23.2554 41.418 24.0806 37.697 26.9142 36.543V20.9278C24.2735 19.8474 23.7911 17.0253 24.5478 15.2149L18.0998 8.75934L1.07286 25.7888C0.38591 26.4759 0 27.4077 0 28.3793C0 29.3509 0.38591 30.2827 1.07286 30.9698L25.9062 55.8018C26.5932 56.4884 27.5247 56.874 28.496 56.874C29.4673 56.874 30.3988 56.4884 31.0858 55.8018L55.8023 31.0853C56.4893 30.3982 56.8752 29.4664 56.8752 28.4948C56.8752 27.5232 56.4893 26.5914 55.8023 25.9044Z" fill="#101010"/>
</svg>
